<svg width="125" height="48" viewBox="0 0 125 48" fill="none" xmlns="http://www.w3.org/2000/svg">
<path d="M48.1328 30.1745C48.2196 30.9977 48.8273 31.9942 49.9557 31.9942H50.6068C50.8672 31.9942 51.0842 31.7776 51.0842 31.5176V17.1762C51.0842 16.9163 50.8672 16.7429 50.6068 16.7429H48.5668C48.3064 16.7429 48.1328 16.9163 48.0894 17.1762V18.3461C46.8307 16.8296 44.8776 16.1797 42.9245 16.1797C38.454 16.1797 34.8516 19.7759 34.8516 24.2386C34.895 28.7014 38.4974 32.2975 42.9679 32.2975C44.921 32.2975 47.0477 31.561 48.1328 30.1745ZM42.9679 29.4812C40.1467 29.4812 37.8464 27.1416 37.8464 24.2386C37.8464 21.3357 40.1467 18.996 42.9679 18.996C45.7891 18.996 48.0894 21.3357 48.0894 24.2386C48.0894 27.1416 45.7891 29.4812 42.9679 29.4812Z" fill="#8F99A8"/>
<path d="M81.1207 30.1745C81.2075 30.9977 81.8151 31.9942 82.9436 31.9942H83.5946C83.855 31.9942 84.0721 31.7776 84.0721 31.5176V17.1762C84.0721 16.9163 83.855 16.7429 83.5946 16.7429H81.5981C81.3377 16.7429 81.1641 16.9163 81.1207 17.1762V18.3461C79.862 16.8296 77.9089 16.1797 75.9557 16.1797C71.4852 16.1797 67.8828 19.7759 67.8828 24.2386C67.8828 28.7014 71.4852 32.2975 75.9557 32.2975C77.9523 32.2975 80.079 31.561 81.1207 30.1745ZM75.9991 29.4812C73.178 29.4812 70.8776 27.1416 70.8776 24.2386C70.8776 21.3357 73.178 18.996 75.9991 18.996C78.8203 18.996 81.1207 21.3357 81.1207 24.2386C81.1207 27.1416 78.8203 29.4812 75.9991 29.4812Z" fill="#8F99A8"/>
<path d="M118.055 30.1745C118.141 30.9977 118.749 31.9942 119.878 31.9942H120.529C120.789 31.9942 121.006 31.7776 121.006 31.5176V17.1762C121.006 16.9163 120.789 16.7429 120.529 16.7429H118.489C118.228 16.7429 118.055 16.9163 118.011 17.1762V18.3461C116.753 16.8296 114.799 16.1797 112.846 16.1797C108.376 16.1797 104.773 19.7759 104.773 24.2386C104.773 28.7014 108.376 32.2975 112.846 32.2975C114.843 32.2975 116.97 31.561 118.055 30.1745ZM112.89 29.4812C110.069 29.4812 107.768 27.1416 107.768 24.2386C107.768 21.3357 110.069 18.996 112.89 18.996C115.711 18.996 118.011 21.3357 118.011 24.2386C118.011 27.1416 115.711 29.4812 112.89 29.4812Z" fill="#8F99A8"/>
<path d="M102.258 30.6507V23.2417C102.258 19.0389 99.6102 16.2227 95.4002 16.2227C93.4036 16.2227 91.5373 17.3925 91.1467 18.389C91.0165 17.6091 90.6259 16.7859 89.3238 16.7859H88.6727C88.4123 16.7859 88.1953 17.0026 88.1953 17.2625V30.2175V31.6039V31.6473C88.1953 31.9072 88.4123 32.0805 88.6727 32.0805H90.0616H90.7127C90.7561 32.0805 90.7561 32.0805 90.7995 32.0805H90.8429H90.8863C90.8863 32.0805 90.9297 32.0805 90.9297 32.0372C90.9297 32.0372 90.9297 32.0372 90.9731 32.0372L91.0165 31.9939L91.0599 31.9506C91.1033 31.8639 91.1467 31.7772 91.1467 31.6906V31.6473V30.7374V30.4774V23.1117C91.1467 20.8587 92.9696 19.0389 95.2266 19.0389C97.4835 19.0389 99.3064 20.8587 99.3064 23.1117V30.2175V31.5606V31.6039C99.3064 31.8639 99.5234 32.0372 99.7839 32.0372H101.173H101.824C101.867 32.0372 101.867 32.0372 101.911 32.0372H101.954H101.997C101.997 32.0372 102.041 32.0372 102.041 31.9939C102.041 31.9939 102.041 31.9939 102.084 31.9939L102.128 31.9506L102.171 31.9072C102.214 31.8206 102.258 31.7339 102.258 31.6473V31.6039V30.6507Z" fill="#8F99A8"/>
<path d="M55.9002 28.0944C57.2457 29.0476 58.7214 29.4809 60.1536 29.4809C61.4991 29.4809 62.888 28.7876 62.888 27.5745C62.888 25.928 59.8498 25.7114 57.9401 25.0615C56.0304 24.4116 54.3811 23.0684 54.3811 20.902C54.3811 17.5658 57.3325 16.2227 60.1102 16.2227C61.8464 16.2227 63.6693 16.7859 64.8411 17.6091C65.2318 17.9124 65.0148 18.2591 65.0148 18.2591L63.8863 19.8622C63.7561 20.0355 63.5391 20.2088 63.2352 19.9922C62.9314 19.8188 61.803 18.9956 60.1102 18.9956C58.4175 18.9956 57.4193 19.7755 57.4193 20.7287C57.4193 21.8986 58.7214 22.2452 60.2839 22.6351C62.9748 23.3717 65.9262 24.2383 65.9262 27.5311C65.9262 30.4774 63.1918 32.2539 60.1536 32.2539C57.8533 32.2539 55.9002 31.6039 54.2509 30.3908C53.9036 30.0441 54.1641 29.7409 54.1641 29.7409L55.2925 28.1377C55.5095 27.9211 55.77 28.0078 55.9002 28.0944Z" fill="#8F99A8"/>
<mask id="mask0_591_101304" style="mask-type:luminance" maskUnits="userSpaceOnUse" x="3" y="12" width="27" height="24">
<path d="M22.178 17.8268C22.178 20.8597 19.704 23.3294 16.6658 23.3294C13.6276 23.3294 11.1536 20.8597 11.1536 17.8268C11.1536 14.7939 13.6276 12.3242 16.6658 12.3242C19.7474 12.3242 22.178 14.7506 22.178 17.8268ZM9.50434 24.6726C6.46615 24.6726 3.99219 27.1422 3.99219 30.1752C3.99219 33.2081 6.46615 35.6778 9.50434 35.6778C12.5425 35.6778 15.0165 33.2081 15.0165 30.1752C15.0165 27.1422 12.5859 24.6726 9.50434 24.6726ZM23.8273 24.6726C20.7891 24.6726 18.3151 27.1422 18.3151 30.1752C18.3151 33.2081 20.7891 35.6778 23.8273 35.6778C26.8655 35.6778 29.3394 33.2081 29.3394 30.1752C29.3394 27.1422 26.9089 24.6726 23.8273 24.6726Z" fill="white"/>
</mask>
<g mask="url(#mask0_591_101304)">
<path d="M16.6701 12.0645C24.3524 12.0645 30.559 18.2603 30.559 25.9293C30.559 33.5982 24.3524 39.7941 16.6701 39.7941C8.98785 39.7941 2.78125 33.5982 2.78125 25.9293C2.82465 18.2603 9.03125 12.0645 16.6701 12.0645Z" fill="#8F99A8"/>
</g>
</svg>
