<svg width="20" height="20" viewBox="0 0 20 20" fill="none" xmlns="http://www.w3.org/2000/svg">
<path d="M12.0834 2.5L8.54999 2.5C6.86984 2.5 6.02976 2.5 5.38802 2.82698C4.82354 3.1146 4.36459 3.57355 4.07697 4.13804C3.74999 4.77978 3.75 5.61987 3.75001 7.30006C3.75002 9.28149 3.75003 10.7185 3.75004 12.6999C3.75005 14.3801 3.75005 15.2202 4.07703 15.862C4.36466 16.4265 4.82359 16.8854 5.38808 17.173C6.02982 17.5 6.8699 17.5 8.55006 17.5H11.45C13.1301 17.5 13.9702 17.5 14.612 17.173C15.1764 16.8854 15.6354 16.4265 15.923 15.862C16.25 15.2202 16.25 14.3802 16.25 12.7L16.25 6.78571M12.0834 2.5L12.0834 5.45238C12.0834 5.91909 12.0834 6.15245 12.1742 6.33071C12.2541 6.48751 12.3816 6.61499 12.5384 6.69489C12.7166 6.78571 12.95 6.78571 13.4167 6.78571L16.25 6.78571M12.0834 2.5L14.1667 4.64286L16.25 6.78571" stroke="#232529" stroke-width="1.2" stroke-linecap="round" stroke-linejoin="round"/>
<path d="M7.25 10.875H12.75" stroke="#232529" stroke-width="1.2" stroke-linecap="round" stroke-linejoin="round"/>
<path d="M7.25 13.75H12.75" stroke="#232529" stroke-width="1.2" stroke-linecap="round" stroke-linejoin="round"/>
</svg>
