<svg width="20" height="20" viewBox="0 0 20 20" fill="none" xmlns="http://www.w3.org/2000/svg">
<path d="M2.14062 9.72949H4.9317C5.63176 9.72949 5.9818 9.72949 6.24919 9.86573C6.48439 9.98558 6.67561 10.1768 6.79546 10.412C6.9317 10.6794 6.9317 11.0294 6.9317 11.7295V12.0517C6.9317 12.4717 6.9317 12.6817 7.01344 12.8422C7.08535 12.9833 7.20008 13.098 7.3412 13.1699C7.50164 13.2517 7.71166 13.2517 8.1317 13.2517H11.8638C12.2839 13.2517 12.4939 13.2517 12.6543 13.1699C12.7955 13.098 12.9102 12.9833 12.9821 12.8422C13.0638 12.6817 13.0638 12.4717 13.0638 12.0517V11.7295C13.0638 11.0294 13.0638 10.6794 13.2001 10.412C13.3199 10.1768 13.5111 9.98558 13.7464 9.86573C14.0137 9.72949 14.3638 9.72949 15.0638 9.72949H17.8549L17.8549 13.8576V13.8576C17.8549 15.2577 17.8549 15.9578 17.5824 16.4925C17.3427 16.963 16.9603 17.3454 16.4899 17.5851C15.9551 17.8576 15.255 17.8576 13.8549 17.8576H6.14065C4.74052 17.8576 4.04046 17.8576 3.50568 17.5851C3.03528 17.3454 2.65283 16.963 2.41314 16.4926C2.14066 15.9578 2.14066 15.2577 2.14065 13.8576L2.14062 9.72949Z" stroke="#232529" stroke-width="1.2" stroke-linecap="round" stroke-linejoin="round"/>
<path d="M17.8549 9.72879L16.9422 6.11095M2.14062 9.72879L3.70757 4.18145C3.91396 3.45077 4.01716 3.08543 4.2294 2.81418C4.41672 2.57477 4.66318 2.38828 4.94449 2.27309C5.26322 2.14258 5.64286 2.14258 6.40213 2.14258H9.44219" stroke="#232529" stroke-width="1.2" stroke-linecap="round" stroke-linejoin="round"/>
<ellipse cx="13.7812" cy="3.42871" rx="2" ry="2" stroke="#232529" stroke-width="1.2" stroke-linecap="round" stroke-linejoin="round"/>
</svg>
