<svg width="125" height="48" viewBox="0 0 125 48" fill="none" xmlns="http://www.w3.org/2000/svg">
<g clip-path="url(#clip0_591_101293)">
<path d="M43.0204 19.6032C43.0204 19.0069 42.5604 18.5176 41.9164 18.5176C41.2725 18.5176 40.8125 19.0069 40.8125 19.6032V28.4109C40.8125 29.0073 41.2725 29.4966 41.9164 29.4966C42.5757 29.4966 43.0204 29.0073 43.0204 28.4109V19.6032Z" fill="#8F99A8"/>
<path d="M53.8865 18.5176C53.2426 18.5176 52.7979 19.0069 52.7979 19.6032V23.3649L52.8592 26.729L51.5253 23.5789L49.7774 20.0008C49.2408 18.8846 48.6276 18.5176 47.7536 18.5176C46.4658 18.5176 45.8984 19.328 45.8984 20.4901V28.4109C45.8984 29.0073 46.343 29.4966 46.9871 29.4966C47.631 29.4966 48.0756 29.0073 48.0756 28.4109L48.0603 24.6952L48.0143 20.8877L49.4402 24.374L51.2034 28.0133C51.7554 29.1754 52.338 29.5119 53.2272 29.5119C54.3771 29.5119 54.975 28.8084 54.975 27.5088V19.6032C54.975 19.0069 54.5305 18.5176 53.8865 18.5176Z" fill="#8F99A8"/>
<path d="M63.1162 20.7664L65.6153 20.8276C66.1979 20.8429 66.6579 20.3994 66.6579 19.7572C66.6579 19.115 66.1979 18.6715 65.6153 18.6715L58.3784 18.6562C57.8112 18.6562 57.3359 19.0997 57.3359 19.7419C57.3359 20.3841 57.8112 20.8276 58.3784 20.8123L60.893 20.7664V28.4119C60.893 29.0083 61.3529 29.4977 61.9969 29.4977C62.6561 29.4977 63.1162 29.0083 63.1162 28.4119V20.7664Z" fill="#8F99A8"/>
<path d="M70.5257 29.3597H75.9073C76.4746 29.3597 76.9346 28.9315 76.9346 28.3351C76.9346 27.7235 76.4746 27.2954 75.9073 27.2954L71.231 27.3107V24.757H75.2786C75.8307 24.757 76.2752 24.3441 76.2752 23.7784C76.2752 23.1973 75.8307 22.7845 75.2786 22.7845L71.231 22.815V20.7049H75.9073C76.4746 20.7049 76.9346 20.2768 76.9346 19.6651C76.9346 19.0535 76.4746 18.6406 75.9073 18.6406L70.541 18.6559C69.5597 18.6559 69.0078 19.2064 69.0078 20.185V27.8306C69.0078 28.8092 69.5597 29.3597 70.5257 29.3597Z" fill="#8F99A8"/>
<path d="M85.7003 25.0021C87.1568 24.6198 88.0155 23.4883 88.0155 21.9897C88.0155 20.323 86.9269 18.6562 84.3204 18.6562H80.9473C79.9661 18.6562 79.4141 19.2067 79.4141 20.1854V28.4119C79.4141 29.0083 79.8741 29.4977 80.5487 29.4977C81.2079 29.4977 81.6832 29.0083 81.6832 28.4119L81.6679 25.5372H83.5231L85.4089 28.9319C85.7156 29.4518 86.3595 29.6658 86.9576 29.36C87.5555 29.0389 87.7241 28.3966 87.4022 27.8768L85.7003 25.0021ZM81.6679 20.69H84.3357C85.2403 20.69 85.8076 21.2557 85.8076 22.0967C85.8076 22.9225 85.271 23.5342 84.3664 23.5342H81.6679V20.69Z" fill="#8F99A8"/>
<path d="M94.7827 29.5574C97.0213 29.5574 98.4625 28.5482 98.9531 26.912C99.2138 25.9792 98.6619 25.3065 97.8339 25.3065C97.3279 25.3065 96.9906 25.5664 96.7913 26.1322C96.4847 26.9885 95.7333 27.5238 94.6601 27.5238C92.9583 27.5238 92.2223 26.3768 92.2223 23.9914C92.2223 21.6519 92.9736 20.5357 94.6601 20.5357C95.718 20.5357 96.3314 20.9791 96.7147 22.0036C96.9293 22.5847 97.282 22.8446 97.8032 22.8446C98.6004 22.8446 99.1831 22.2024 98.9378 21.3155C98.4472 19.5112 97.0213 18.502 94.7214 18.502C91.5631 18.502 89.9531 20.4286 89.9531 23.9914C89.9531 27.5848 91.5631 29.5574 94.7827 29.5574Z" fill="#8F99A8"/>
<path d="M105.689 29.5275C108.939 29.5275 110.549 27.5395 110.549 23.992C110.549 20.4139 108.893 18.4414 105.689 18.4414C102.469 18.4414 100.859 20.4445 100.844 23.992C100.844 27.5548 102.484 29.5275 105.689 29.5275ZM105.689 27.4785C103.879 27.4785 103.098 26.3317 103.098 23.992C103.098 21.6219 103.895 20.4751 105.673 20.4751C107.467 20.4751 108.311 21.6219 108.295 23.992C108.295 26.3468 107.498 27.4785 105.689 27.4785Z" fill="#8F99A8"/>
<path d="M124.82 20.4286C124.82 19.2206 124.069 18.502 122.904 18.502C121.953 18.502 121.233 19.0219 120.88 20.2146L119.699 24.0526L118.917 26.8203L118.166 24.0526L116.909 20.2146C116.556 19.0983 115.943 18.502 114.87 18.502C113.689 18.502 112.953 19.2053 112.953 20.4286V28.4105C112.953 29.007 113.382 29.4963 114.011 29.4963C114.64 29.4963 115.069 29.007 115.069 28.4105L115.054 24.5572L114.946 20.4286L116.158 24.649L117.445 28.3799C117.721 29.2057 118.243 29.481 118.917 29.481C119.546 29.481 120.052 29.2516 120.313 28.4105L121.539 24.649L122.842 20.3981L122.72 24.5572V28.4105C122.72 29.007 123.164 29.4963 123.778 29.4963C124.406 29.4963 124.836 29.007 124.836 28.4105L124.82 20.4286Z" fill="#8F99A8"/>
<path d="M24.8177 25.4371C24.8177 25.692 24.7173 25.9363 24.5385 26.1165C24.3597 26.2967 24.1172 26.398 23.8643 26.398C23.6115 26.398 23.369 26.2967 23.1902 26.1165C23.0114 25.9363 22.911 25.692 22.911 25.4371V16.8535C22.911 16.5987 23.0114 16.3543 23.1902 16.1741C23.369 15.9939 23.6115 15.8927 23.8643 15.8927C24.1172 15.8927 24.3597 15.9939 24.5385 16.1741C24.7173 16.3543 24.8177 16.5987 24.8177 16.8535V25.4371ZM24.4867 31.3846C24.3607 31.5116 20.8153 34.4893 14.3154 34.4893C7.8156 34.4893 4.29384 31.5275 4.14416 31.4004C4.04982 31.3202 3.97212 31.2221 3.9155 31.1116C3.85888 31.001 3.82445 30.8804 3.81421 30.7564C3.80396 30.6326 3.81808 30.5078 3.85578 30.3893C3.89347 30.271 3.95399 30.1611 4.03385 30.0664C4.1984 29.8745 4.43153 29.7561 4.68244 29.7366C4.93334 29.7173 5.18165 29.7988 5.37322 29.9632C5.42837 30.0029 8.59557 32.5914 14.3075 32.5914C20.0196 32.5914 23.2104 29.987 23.242 29.9632C23.4357 29.8002 23.6848 29.7198 23.9363 29.7391C24.1879 29.7584 24.4221 29.8758 24.5891 30.0664C24.7499 30.2554 24.8301 30.5008 24.8124 30.749C24.7948 30.9973 24.6805 31.2286 24.4946 31.3925L24.4867 31.3846ZM3.80538 16.8535C3.81962 16.5979 3.9337 16.3583 4.12267 16.1872C4.31164 16.0161 4.56013 15.9274 4.81384 15.9404C5.04903 15.9538 5.27096 16.0546 5.43681 16.2232C5.60267 16.3918 5.7007 16.6164 5.712 16.8535V25.4213C5.712 25.6761 5.61156 25.9204 5.43279 26.1006C5.254 26.2809 5.01152 26.3821 4.75869 26.3821C4.50586 26.3821 4.26338 26.2809 4.08459 26.1006C3.90582 25.9204 3.80538 25.6761 3.80538 25.4213V16.8535ZM8.5877 14.9478C8.60194 14.6922 8.71602 14.4526 8.90499 14.2815C9.09396 14.1104 9.34245 14.0217 9.59616 14.0347C9.83136 14.0481 10.0533 14.1489 10.2191 14.3175C10.385 14.4861 10.483 14.7106 10.4943 14.9478V27.6525C10.4943 27.9074 10.3939 28.1517 10.2151 28.3319C10.0363 28.5121 9.79384 28.6133 9.54101 28.6133C9.28818 28.6133 9.0457 28.5121 8.86691 28.3319C8.68814 28.1517 8.5877 27.9074 8.5877 27.6525V14.9478ZM13.3937 14.4714C13.3937 14.2166 13.4941 13.9722 13.6729 13.792C13.8517 13.6118 14.0942 13.5106 14.3469 13.5106C14.5998 13.5106 14.8423 13.6118 15.0211 13.792C15.1999 13.9722 15.3003 14.2166 15.3003 14.4714V28.2878C15.3003 28.5425 15.1999 28.7869 15.0211 28.9672C14.8423 29.1474 14.5998 29.2485 14.3469 29.2485C14.0942 29.2485 13.8517 29.1474 13.6729 28.9672C13.4941 28.7869 13.3937 28.5425 13.3937 28.2878V14.4714ZM18.1209 14.9478C18.1209 14.693 18.2213 14.4486 18.4001 14.2684C18.5789 14.0882 18.8213 13.987 19.0741 13.987C19.327 13.987 19.5695 14.0882 19.7482 14.2684C19.927 14.4486 20.0275 14.693 20.0275 14.9478V27.6525C20.0275 27.9074 19.927 28.1517 19.7482 28.3319C19.5695 28.5121 19.327 28.6133 19.0741 28.6133C18.8213 28.6133 18.5789 28.5121 18.4001 28.3319C18.2213 28.1517 18.1209 27.9074 18.1209 27.6525V14.9478ZM25.0776 9.70711H3.58477C3.11645 9.70397 2.65212 9.79397 2.21837 9.97194C1.7846 10.1499 1.38993 10.4124 1.05695 10.7443C0.723967 11.0762 0.459213 11.471 0.277846 11.9062C0.0964792 12.3414 0.0020619 12.8083 0 13.2803V34.7196C0.0020619 35.1915 0.0964792 35.6585 0.277846 36.0937C0.459213 36.5287 0.723967 36.9237 1.05695 37.2556C1.38993 37.5874 1.7846 37.85 2.21837 38.0279C2.65212 38.2059 3.11645 38.2958 3.58477 38.2927H25.0776C25.5453 38.2958 26.009 38.2062 26.4422 38.0286C26.8755 37.8512 27.2698 37.5894 27.6027 37.2583C27.9356 36.9273 28.2005 36.5334 28.3823 36.0991C28.5642 35.6649 28.6594 35.1988 28.6624 34.7275V13.2803C28.6604 12.809 28.5662 12.3427 28.3853 11.908C28.2045 11.4734 27.9404 11.0789 27.6082 10.7471C27.2761 10.4153 26.8824 10.1527 26.4495 9.97423C26.0167 9.79579 25.5532 9.70502 25.0855 9.70711" fill="#8F99A8"/>
</g>
<defs>
<clipPath id="clip0_591_101293">
<rect width="125" height="28.5858" fill="white" transform="translate(0 9.70703)"/>
</clipPath>
</defs>
</svg>
