<svg width="20" height="20" viewBox="0 0 20 20" fill="none" xmlns="http://www.w3.org/2000/svg">
<path d="M2.21875 7.02266C2.21875 5.3425 2.21875 4.50242 2.54573 3.86068C2.83335 3.2962 3.29229 2.83726 3.85678 2.54964C4.49851 2.22266 5.33859 2.22266 7.01875 2.22266H9.99653H12.9743C14.6545 2.22266 15.4945 2.22266 16.1363 2.54964C16.7008 2.83726 17.1597 3.2962 17.4473 3.86068C17.7743 4.50242 17.7743 5.3425 17.7743 7.02266V12.9785C17.7743 14.6587 17.7743 15.4988 17.4473 16.1405C17.1597 16.705 16.7008 17.1639 16.1363 17.4516C15.4945 17.7785 14.6545 17.7785 12.9743 17.7785H9.99653H7.01875C5.33859 17.7785 4.49851 17.7785 3.85678 17.4516C3.29229 17.1639 2.83335 16.705 2.54573 16.1405C2.21875 15.4988 2.21875 14.6587 2.21875 12.9785V7.02266Z" stroke="#232529" stroke-width="1.2" stroke-linecap="round" stroke-linejoin="round"/>
<path d="M9.28125 13.3516V11.1978C9.28125 10.0083 10.2456 9.04395 11.4351 9.04395C12.6246 9.04395 13.5889 10.0083 13.5889 11.1978V13.3516" stroke="#232529" stroke-width="1.2" stroke-linecap="round" stroke-linejoin="round"/>
<path d="M9.28125 9.04395V13.3516" stroke="#232529" stroke-width="1.2" stroke-linecap="round" stroke-linejoin="round"/>
<path d="M6.40625 9.04395V13.3516" stroke="#232529" stroke-width="1.2" stroke-linecap="round" stroke-linejoin="round"/>
<path d="M6.40625 6.41113V6.50784" stroke="#232529" stroke-width="1.2" stroke-linecap="round" stroke-linejoin="round"/>
</svg>
