<svg width="125" height="48" viewBox="0 0 125 48" fill="none" xmlns="http://www.w3.org/2000/svg">
<path fill-rule="evenodd" clip-rule="evenodd" d="M99.004 25.0078C99.004 19.8031 96.4895 15.6963 91.6837 15.6963C86.8575 15.6963 83.9375 19.8031 83.9375 24.9671C83.9375 31.0867 87.3847 34.1769 92.3325 34.1769C94.7456 34.1769 96.5706 33.628 97.9495 32.8554V28.7893C96.5706 29.4805 94.9889 29.9075 92.9814 29.9075C91.0145 29.9075 89.2706 29.2162 89.0475 26.8172H98.9634C98.9634 26.5529 99.004 25.4957 99.004 25.0078ZM88.9867 23.0764C88.9867 20.779 90.3859 19.8234 91.6634 19.8234C92.9003 19.8234 94.2184 20.779 94.2184 23.0764H88.9867Z" fill="#8F99A8"/>
<path fill-rule="evenodd" clip-rule="evenodd" d="M76.1055 15.6963C74.1182 15.6963 72.8407 16.6315 72.131 17.2821L71.8674 16.0216H67.4062V39.7272L72.4757 38.6497L72.496 32.8961C73.226 33.4247 74.3007 34.1769 76.0852 34.1769C79.7149 34.1769 83.0202 31.2493 83.0202 24.8045C82.9999 18.9085 79.6541 15.6963 76.1055 15.6963ZM74.8888 29.7042C73.6924 29.7042 72.9827 29.2772 72.496 28.7486L72.4757 21.2059C73.0029 20.6163 73.733 20.2097 74.8888 20.2097C76.7341 20.2097 78.0116 22.2835 78.0116 24.9468C78.0116 27.6711 76.7544 29.7042 74.8888 29.7042Z" fill="#8F99A8"/>
<path fill-rule="evenodd" clip-rule="evenodd" d="M60.4297 14.4975L65.5194 13.3996V9.27246L60.4297 10.35V14.4975Z" fill="#8F99A8"/>
<path d="M65.5194 16.042H60.4297V33.8314H65.5194V16.042Z" fill="#8F99A8"/>
<path fill-rule="evenodd" clip-rule="evenodd" d="M54.9701 17.5467L54.6457 16.0422H50.2656V33.8316H55.3351V21.7755C56.5315 20.21 58.5593 20.4946 59.1879 20.7183V16.0422C58.539 15.7982 56.1665 15.3509 54.9701 17.5467Z" fill="#8F99A8"/>
<path fill-rule="evenodd" clip-rule="evenodd" d="M44.8353 11.6309L39.8875 12.6881L39.8672 28.973C39.8672 31.9819 42.118 34.198 45.1192 34.198C46.7819 34.198 47.9986 33.893 48.6678 33.5271V29.3999C48.0189 29.6642 44.815 30.5995 44.815 27.5905V20.3731H48.6678V16.0426H44.815L44.8353 11.6309Z" fill="#8F99A8"/>
<path fill-rule="evenodd" clip-rule="evenodd" d="M31.1303 21.2059C31.1303 20.413 31.7792 20.1081 32.8539 20.1081C34.395 20.1081 36.3417 20.5757 37.8828 21.4092V16.6315C36.1998 15.9606 34.537 15.6963 32.8539 15.6963C28.7375 15.6963 26 17.8513 26 21.4499C26 27.0612 33.7056 26.1666 33.7056 28.586C33.7056 29.5212 32.8945 29.8262 31.7589 29.8262C30.0759 29.8262 27.9264 29.1349 26.2231 28.1997V33.0384C28.1089 33.8517 30.015 34.1973 31.7589 34.1973C35.9767 34.1973 38.8765 32.1032 38.8765 28.464C38.8562 22.4054 31.1303 23.483 31.1303 21.2059Z" fill="#8F99A8"/>
</svg>
