<svg width="125" height="48" viewBox="0 0 125 48" fill="none" xmlns="http://www.w3.org/2000/svg">
<path d="M28.5986 22.3848H15.0049C14.4873 22.3848 14.0625 21.9695 14.0625 21.4793V19.9133C14.0625 19.4152 14.4954 19.0078 15.0049 19.0078H28.6849C29.2025 19.0078 29.6273 19.4232 29.6273 19.9133V21.4793C29.541 21.9774 29.1081 22.3848 28.5986 22.3848Z" fill="#8F99A8"/>
<path d="M4.62402 29.1529C4.10482 29.1529 3.67188 28.7296 3.67188 28.2235V26.6146C3.67188 26.1913 4.10482 25.7695 4.62402 25.7695H18.3464C18.8656 25.7695 19.2969 26.1913 19.2969 26.6989V28.3079C19.2106 28.7296 18.7793 29.1529 18.2585 29.1529H4.62402Z" fill="#8F99A8"/>
<path d="M8.81771 35.0764C9.76986 35.0764 10.5479 34.3141 10.5479 33.3847C10.5479 32.4537 9.76986 31.6914 8.81771 31.6914C7.86556 31.6914 7.08594 32.4537 7.08594 33.3847C7.08594 34.3141 7.86556 35.0764 8.81771 35.0764Z" fill="#8F99A8"/>
<path d="M24.388 16.4612C25.3402 16.4612 26.1182 15.6989 26.1182 14.7695C26.1182 13.8385 25.3402 13.0762 24.388 13.0762C23.4359 13.0762 22.6562 13.8385 22.6562 14.7695C22.6562 15.6989 23.4359 16.4612 24.388 16.4612Z" fill="#8F99A8"/>
<path d="M16.6063 34.2291C15.6541 34.2291 14.7036 34.062 13.8377 33.8073C13.4048 33.723 12.9718 33.8917 12.8009 34.3134L12.1938 35.9224C12.0213 36.3457 12.2801 36.8533 12.8009 37.022C14.0102 37.4454 15.3074 37.614 16.6063 37.614C22.2296 37.614 27.075 34.3134 29.2381 29.5757C29.4106 29.1524 29.2381 28.562 28.7173 28.3917L27.075 27.7997C26.6421 27.6294 26.2107 27.7997 26.0366 28.223C24.3927 31.7751 20.8445 34.2291 16.6063 34.2291Z" fill="#8F99A8"/>
<path d="M16.6028 13.924C17.5549 13.924 18.5071 14.0927 19.3713 14.3474C19.8043 14.4317 20.2372 14.263 20.4097 13.8397L21.0152 12.2308C21.1877 11.809 20.9273 11.3014 20.4097 11.1311C19.1972 10.7078 17.9 10.5391 16.6028 10.5391C10.9778 10.5391 6.13401 13.8397 3.97092 18.5774C3.7984 19.0007 3.97092 19.5927 4.49013 19.763L6.13401 20.355C6.56695 20.5237 6.99989 20.355 7.17242 19.9317C8.8163 16.378 12.3645 13.924 16.6028 13.924Z" fill="#8F99A8"/>
<path d="M40.446 35.0853V33.2838C41.8652 34.654 43.4993 35.3733 45.2474 35.3733C46.7253 35.3733 47.5749 34.6795 47.5749 33.5893C47.5749 32.2175 46.224 32.0647 44.6761 31.896C42.6774 31.6685 40.2734 31.3709 40.2734 28.815C40.2734 26.6761 42.0638 25.4316 44.4238 25.4316C46.7871 25.4316 48.1706 26.2019 49.113 26.9117V28.6989C47.9036 27.4544 46.3102 26.8353 44.4857 26.8194C42.832 26.8194 42.028 27.5737 42.028 28.6638C42.028 29.9243 43.431 30.1121 44.987 30.2792C47.0036 30.5083 49.3734 30.8473 49.3734 33.4525C49.3734 35.4672 47.7995 36.7945 45.3337 36.7945C42.8678 36.7945 41.5869 36.0433 40.4541 35.0853H40.446Z" fill="#8F99A8"/>
<path d="M50.8438 30.9903C50.8438 27.5464 53.0329 25.4219 56.07 25.4219C58.9329 25.4219 60.9919 27.1311 60.9919 30.7023V31.5489H52.6504C52.8083 34.2559 54.667 35.3317 57.2126 35.3317C58.9069 35.3317 59.9958 34.7302 60.7673 34.1127V35.6962C60.152 36.1688 59.0192 36.8022 56.8984 36.8022C53.1354 36.8022 50.8438 34.7731 50.8438 31.2609V30.9903ZM52.6699 30.2376H59.1836C59.0713 27.9443 57.9108 26.8192 56.0521 26.8192C54.1917 26.8192 52.9206 27.9284 52.6699 30.2376Z" fill="#8F99A8"/>
<path d="M62.0781 38.6229C62.0781 37.4039 63.0384 36.5158 65.2894 36.3631C65.3057 36.3631 65.3236 36.3472 65.3236 36.3296C65.3236 36.3137 65.3057 36.2946 65.2894 36.2946C63.307 36.2946 62.5811 35.8236 62.5811 34.883C62.5811 34.0205 63.5072 33.2072 65.7565 33.1897C65.7728 33.1897 65.7907 33.1738 65.7907 33.1563C65.7907 33.1404 65.7728 33.1229 65.7565 33.1229C63.792 32.8428 62.6413 31.4901 62.6413 29.4419C62.6413 27.0388 64.5277 25.4395 67.2946 25.4395C68.5837 25.4395 69.1989 25.6257 70.0208 25.6257H72.9977V27.0548H70.7142C71.4401 27.5624 71.9072 28.5364 71.9072 29.6106C71.9072 31.7177 70.2373 33.4094 67.3906 33.4094H66.6989C65.1592 33.4094 64.3551 33.7324 64.3551 34.291C64.3551 34.891 64.8906 34.9849 66.9316 34.9849H68.9922C71.6208 34.9849 72.9538 35.6437 72.9538 37.5232C72.9538 39.4011 71.3018 40.8891 67.1481 40.8891H66.8812C63.2126 40.8891 62.096 39.9852 62.096 38.6309L62.0781 38.6229ZM71.1878 37.7763C71.1878 36.7609 70.3415 36.4983 68.6113 36.4983H66.7852C64.596 36.4983 63.8441 37.2686 63.8441 38.1582C63.8441 38.9698 64.6742 39.5284 67.0358 39.5284H67.2441C70.125 39.5284 71.1797 38.8521 71.1797 37.7763H71.1878ZM70.1673 29.4849C70.1673 27.9014 69.1468 26.6664 67.2865 26.6664C65.4277 26.6664 64.3893 27.7582 64.3893 29.4849C64.3893 30.9904 65.4098 32.133 67.2865 32.133C69.1647 32.133 70.1673 30.9904 70.1673 29.4849Z" fill="#8F99A8"/>
<path d="M74.5007 25.6178H76.2666V29.3418C76.5954 26.6332 77.8421 25.4316 80.0133 25.4316C82.4531 25.4316 83.7243 26.8194 83.931 29.2065C84.2614 26.6841 85.5228 25.4316 87.694 25.4316C90.3503 25.4316 91.6751 27.1583 91.6751 30.0516V36.6099H89.8848V30.3906C89.8848 28.2835 89.0368 26.8703 87.0039 26.8703C85.2559 26.8703 83.9668 28.1896 83.9847 30.5338V36.6099H82.1927V30.2553C82.1927 28.2405 81.3285 26.8703 79.3118 26.8703C77.598 26.8703 76.2747 28.1896 76.2747 30.7454V36.6099H74.4844V25.6099L74.5007 25.6178Z" fill="#8F99A8"/>
<path d="M93.5078 30.9903C93.5078 27.5464 95.6953 25.4219 98.734 25.4219C101.597 25.4219 103.656 27.1311 103.656 30.7023V31.5489H95.3161C95.4707 34.2559 97.3311 35.3317 99.875 35.3317C101.571 35.3317 102.661 34.7302 103.431 34.1127V35.6962C102.816 36.1688 101.683 36.8022 99.5641 36.8022C95.8011 36.8022 93.5078 34.7731 93.5078 31.2609V30.9903ZM95.3324 30.2376H101.848C101.735 27.9443 100.576 26.8192 98.7161 26.8192C96.8574 26.8192 95.5846 27.9284 95.3324 30.2376Z" fill="#8F99A8"/>
<path d="M107.321 25.6178V29.3227C107.702 26.5393 109.146 25.4316 111.284 25.4316C114.165 25.4316 115.549 27.1822 115.549 30.1693V36.6178H113.757V30.5242C113.757 28.2915 112.856 26.8783 110.625 26.8783C108.757 26.8783 107.337 28.266 107.337 30.9396V36.6178H105.547V25.6178H107.321Z" fill="#8F99A8"/>
<path d="M118.566 33.2826V27.0378H116.531V25.7773L117.146 25.7598C118.315 25.701 118.686 25.2697 118.782 23.8819L118.841 23.0703H120.356V25.6087H124.179V27.0378H120.356V33.2237C120.356 34.6528 121.032 35.2878 122.355 35.2878C123.048 35.2878 123.738 35.1366 124.179 34.8565V36.2267C123.738 36.5052 122.951 36.7519 121.854 36.7519C119.586 36.7519 118.566 35.6777 118.566 33.273V33.2826Z" fill="#8F99A8"/>
<path d="M49.7848 20.4717L47.3613 12.0706V14.2938C47.3613 14.4132 47.2832 14.4895 47.1611 14.4895H45.5693V16.8337C45.5693 17.6708 45.7858 17.9175 46.471 17.9175C46.7282 17.9175 46.9805 17.8984 47.2051 17.7981C47.3776 17.7138 47.5078 17.7822 47.5078 17.9175V20.2776C47.5078 20.4129 47.4557 20.4972 47.3271 20.5561C46.8844 20.7598 46.0462 20.8871 45.0257 20.8871C42.3857 20.8871 41.5215 19.6681 41.5215 17.5196V14.4816H40.2145C40.0941 14.4816 40.0078 14.3972 40.0078 14.2779V11.7825C40.0078 11.6632 40.0941 11.5788 40.2145 11.5788H41.0885C41.4434 11.5788 41.6338 11.4276 41.6338 11.0807V9.67545C41.6338 9.55609 41.7038 9.45583 41.8242 9.42082L45.2064 8.35456C45.3805 8.30364 45.4831 8.37207 45.4831 8.52325V11.4945H50.8656C50.986 11.4945 51.0544 11.5438 51.0902 11.6807L51.8779 15.7165L52.6657 11.6807C52.682 11.5629 52.7682 11.4945 52.8903 11.4945H56.4971C56.6175 11.4945 56.7054 11.5629 56.7217 11.6807L57.5355 15.7165L58.3395 11.6807C58.3753 11.5438 58.4437 11.4945 58.5641 11.4945H65.6686C65.7891 11.4945 65.8753 11.5788 65.8753 11.6966V20.4288C65.8753 20.5481 65.7891 20.6325 65.6686 20.6325H62.0163C61.8958 20.6325 61.8079 20.5481 61.8079 20.4288V12.0706L59.4902 20.4717C59.4561 20.5911 59.3698 20.6404 59.2314 20.6404H55.9176C55.7956 20.6404 55.7435 20.5911 55.7093 20.4717L54.6449 16.5043L53.5479 20.4717C53.512 20.5911 53.4616 20.6404 53.3395 20.6404H50.0257C49.8874 20.6404 49.8011 20.5911 49.7653 20.4717H49.7848ZM61.8079 10.5125C61.8079 10.6303 61.8958 10.7163 62.0163 10.7163H65.6686C65.7891 10.7163 65.8753 10.6303 65.8753 10.5125V8.54235C65.8753 8.42299 65.7891 8.33865 65.6686 8.33865H62.0163C61.8958 8.33865 61.8079 8.42299 61.8079 8.54235V10.5221V10.5125ZM66.6794 20.4367C66.6794 20.5561 66.7656 20.6404 66.8877 20.6404H70.5384C70.6589 20.6404 70.7451 20.5561 70.7451 20.4367V8.54235C70.7451 8.42299 70.6589 8.33865 70.5384 8.33865H66.8877C66.7656 8.33865 66.6794 8.42299 66.6794 8.54235V20.4479V20.4367ZM71.5524 20.4367C71.5524 20.5561 71.6387 20.6404 71.7575 20.6404H75.4017C75.5221 20.6404 75.6084 20.5561 75.6084 20.4367V11.7141C75.6084 11.5963 75.5221 11.512 75.4017 11.512H71.7575C71.6387 11.512 71.5524 11.5963 71.5524 11.7141V20.4479V20.4367ZM71.5524 10.5125C71.5524 10.6303 71.6387 10.7163 71.7575 10.7163H75.4017C75.5221 10.7163 75.6084 10.6303 75.6084 10.5125V8.54235C75.6084 8.42299 75.5221 8.33865 75.4017 8.33865H71.7575C71.6387 8.33865 71.5524 8.42299 71.5524 8.54235V10.5221V10.5125ZM86.7266 15.9377V16.1574C86.7266 18.8724 84.6156 20.9205 81.4906 20.9205C78.3688 20.9205 76.2415 18.8724 76.2415 16.1574V15.9377C76.2415 13.2212 78.3769 11.2319 81.4906 11.2319C84.6074 11.2319 86.7266 13.2212 86.7266 15.9377ZM82.8333 15.995C82.8333 14.7442 82.2441 14.254 81.4906 14.254C80.7386 14.254 80.151 14.7442 80.151 15.995V16.1574C80.151 17.3923 80.7386 17.9095 81.4906 17.9095C82.2441 17.9095 82.8333 17.3923 82.8333 16.1574V15.995Z" fill="#8F99A8"/>
</svg>
