<svg width="125" height="48" viewBox="0 0 125 48" fill="none" xmlns="http://www.w3.org/2000/svg">
<g clip-path="url(#clip0_591_101318)">
<path d="M64.1066 18.4999C60.3451 18.4999 57.6333 20.9639 57.6333 24.7038C57.6333 28.4437 60.695 30.9077 64.4566 30.9077C66.731 30.9077 68.743 29.9837 69.9677 28.4877L67.3433 26.9478C66.6435 27.6957 65.5938 28.1357 64.4128 28.1357C62.7945 28.1357 61.3948 27.2557 60.87 25.8918H70.4488C70.5363 25.4958 70.58 25.0998 70.58 24.7038C70.58 20.9639 67.8682 18.4999 64.1066 18.4999ZM60.87 23.4718C61.3073 22.1078 62.4446 21.2279 64.1066 21.2279C65.725 21.2279 66.9059 22.1078 67.3433 23.4718H60.87ZM60.0826 14.716L50.635 31.2157L41.1436 14.716H44.6865L50.5913 25.0118L56.5398 14.716H60.0826ZM28.1094 13L40.75 34.9996H15.4688L28.1094 13ZM84.3141 24.7038C84.3141 26.7718 85.67 28.1357 87.7258 28.1357C89.1254 28.1357 90.1752 27.4757 90.7438 26.4638L93.3681 28.0037C92.2746 29.8077 90.2626 30.9077 87.7258 30.9077C83.9642 30.9077 81.2524 28.4437 81.2524 24.7038C81.2524 20.9639 83.9642 18.4999 87.7258 18.4999C90.2189 18.4999 92.2746 19.5999 93.3681 21.4039L90.7438 22.9438C90.2189 21.8878 89.1254 21.2719 87.7258 21.2719C85.67 21.2719 84.3141 22.6358 84.3141 24.7038ZM112.526 14.716V30.5117H109.464V14.716H112.526ZM100.891 18.4999C97.1297 18.4999 94.4179 20.9639 94.4179 24.7038C94.4179 28.4437 97.4796 30.9077 101.241 30.9077C103.516 30.9077 105.528 29.9837 106.752 28.4877L104.128 26.9478C103.428 27.6957 102.378 28.1357 101.197 28.1357C99.5791 28.1357 98.1794 27.2557 97.6545 25.8918H107.233C107.321 25.4958 107.365 25.0998 107.365 24.7038C107.408 20.9639 104.653 18.4999 100.891 18.4999ZM97.6545 23.4718C98.0919 22.1078 99.2292 21.2279 100.891 21.2279C102.553 21.2279 103.691 22.1078 104.128 23.4718H97.6545ZM80.2464 18.8519V22.1958C79.8965 22.1078 79.5466 22.0198 79.1529 22.0198C77.1846 22.0198 75.7413 23.3838 75.7413 25.4518V30.5557H72.6795V18.8519H75.7413V22.0198C75.7413 20.2599 77.7533 18.8519 80.2464 18.8519Z" fill="#8F99A8"/>
</g>
<defs>
<clipPath id="clip0_591_101318">
<rect width="97.0571" height="21.9996" fill="white" transform="translate(15.4688 13)"/>
</clipPath>
</defs>
</svg>
