<svg width="151" height="48" viewBox="0 0 151 48" fill="none" xmlns="http://www.w3.org/2000/svg">
<path d="M94.2063 31.4372C95.7089 31.4683 97.1627 30.9005 98.2505 29.8579L100.248 32.0324C98.9224 33.3999 97.0883 34.4187 94.2336 34.4187C89.3395 34.4187 86.1797 31.1578 86.1797 26.7377C86.1797 22.3558 89.5102 19.0566 93.7905 19.0566C98.65 19.0566 101.401 22.7739 101.165 27.9299H89.6936C90.1004 30.0697 91.5968 31.4372 94.2118 31.4372M97.7112 25.4742C97.4061 23.475 96.2166 22.0053 93.8377 22.0053C91.6294 22.0053 90.1004 23.2669 89.6918 25.4742H97.7112Z" fill="#8F99A8"/>
<path d="M18.7969 31.2762L27.6371 22.2478H19.0039V19.416H31.7321V22.3062L22.8919 31.3346H31.8501V34.1664H18.7969V31.2762Z" fill="#8F99A8"/>
<path d="M41.7766 31.4372C43.2792 31.4683 44.733 30.9005 45.8208 29.8579L47.8184 32.0324C46.4927 33.3999 44.6586 34.4187 41.8039 34.4187C36.9098 34.4187 33.75 31.1578 33.75 26.7377C33.75 22.3558 37.0805 19.0566 41.3608 19.0566C46.2203 19.0566 48.9715 22.7739 48.7355 27.9299H37.2585C37.6653 30.0697 39.1616 31.4372 41.7766 31.4372ZM45.276 25.476C44.9709 23.4768 43.7815 22.0071 41.4025 22.0071C39.1943 22.0071 37.6653 23.2687 37.2567 25.476H45.276Z" fill="#8F99A8"/>
<path d="M67.8281 26.7465C67.8281 22.025 71.3348 19.0782 75.1937 19.0782C77.1387 19.0782 78.9964 19.9345 80.086 21.2929V12.584H83.2113V34.1281H80.086V32.0869C78.9674 33.5329 77.1096 34.4184 75.1647 34.4184C71.4238 34.4184 67.8281 31.4387 67.8281 26.7501M80.264 26.7209C80.264 24.0955 78.29 21.9411 75.6078 21.9411C72.9837 21.9374 70.9589 24.0316 70.9589 26.7154C70.9589 29.3993 72.991 31.5245 75.6151 31.5245C78.2973 31.5245 80.2712 29.3701 80.2712 26.7154" fill="#8F99A8"/>
<path d="M103.207 30.9949L106.034 29.5197C106.409 30.1897 106.958 30.7442 107.622 31.1236C108.287 31.5029 109.042 31.6926 109.806 31.6723C111.575 31.6723 112.488 30.7594 112.488 29.726C112.488 28.5466 110.779 28.28 108.923 27.9002C106.419 27.3653 103.828 26.5382 103.828 23.5001C103.828 21.1686 106.038 19.0142 109.515 19.0453C112.256 19.0453 114.29 20.1407 115.439 21.9062L112.817 23.3522C112.14 22.3189 110.99 21.6707 109.517 21.6707C107.838 21.6707 106.975 22.4978 106.975 23.4417C106.975 24.5043 108.33 24.7983 110.453 25.2675C112.868 25.7988 115.608 26.5948 115.608 29.6639C115.608 31.6997 113.841 34.4438 109.655 34.4109C106.592 34.4109 104.44 33.1712 103.203 30.9876" fill="#8F99A8"/>
<path d="M124.099 27.5717L121.623 30.2866V34.1226H118.5V12.584H121.623V26.6862L128.254 19.3685H132.054L126.309 25.6839L132.202 34.1226H128.666L124.099 27.5717Z" fill="#8F99A8"/>
<path d="M58.3851 19.0703C54.6715 19.0703 51.5625 21.4895 51.5625 25.5025V34.1201H54.7459V25.9042C54.7459 23.485 56.1297 22.0372 58.4868 22.0372C60.844 22.0372 62.0244 23.485 62.0244 25.9042V34.1201H65.2078V25.5025C65.2078 21.4858 62.0988 19.0703 58.3851 19.0703Z" fill="#8F99A8"/>
</svg>
